{
	"asset":{
		"generator":"Khronos glTF Blender I/O v3.5.30",
		"version":"2.0"
	},
	"scene":0,
	"scenes":[
		{
			"name":"Scene",
			"nodes":[
				0,
				1,
				2,
				3,
				4
			]
		}
	],
	"nodes":[
		{
			"mesh":0,
			"name":"Head"
		},
		{
			"name":"Empty",
			"rotation":[
				0.7070451378822327,
				0,
				0,
				0.7071685194969177
			],
			"translation":[
				0,
				0,
				-31.136642456054688
			]
		},
		{
			"mesh":1,
			"name":"Body",
			"translation":[
				0,
				-1.1681406497955322,
				0
			]
		},
		{
			"mesh":2,
			"name":"Shirt",
			"translation":[
				0,
				-1.1681406497955322,
				0
			]
		},
		{
			"name":"Empty.001",
			"rotation":[
				0.7070451378822327,
				0,
				0,
				0.7071685194969177
			],
			"translation":[
				9.13252067565918,
				0.01337367296218872,
				0
			]
		}
	],
	"materials":[
		{
			"doubleSided":true,
			"name":"Froggo_Material",
			"pbrMetallicRoughness":{
				"baseColorTexture":{
					"index":0
				},
				"metallicFactor":0,
				"roughnessFactor":0.5
			}
		}
	],
	"meshes":[
		{
			"name":"Roundcube",
			"primitives":[
				{
					"attributes":{
						"POSITION":0,
						"TEXCOORD_0":1,
						"NORMAL":2
					},
					"indices":3,
					"material":0
				}
			]
		},
		{
			"name":"Roundcube.001",
			"primitives":[
				{
					"attributes":{
						"POSITION":4,
						"TEXCOORD_0":5,
						"NORMAL":6
					},
					"indices":7,
					"material":0
				}
			]
		},
		{
			"name":"Roundcube.002",
			"primitives":[
				{
					"attributes":{
						"POSITION":8,
						"TEXCOORD_0":9,
						"NORMAL":10
					},
					"indices":11,
					"material":0
				}
			]
		}
	],
	"textures":[
		{
			"sampler":0,
			"source":0
		}
	],
	"images":[
		{
			"bufferView":4,
			"mimeType":"image/png",
			"name":"Froggo_Texture"
		}
	],
	"accessors":[
		{
			"bufferView":0,
			"componentType":5126,
			"count":194,
			"max":[
				1.1833914518356323,
				1.3742750883102417,
				1
			],
			"min":[
				-1.1833914518356323,
				-0.8742824196815491,
				-1
			],
			"type":"VEC3"
		},
		{
			"bufferView":1,
			"componentType":5126,
			"count":194,
			"type":"VEC2"
		},
		{
			"bufferView":2,
			"componentType":5126,
			"count":194,
			"type":"VEC3"
		},
		{
			"bufferView":3,
			"componentType":5123,
			"count":960,
			"type":"SCALAR"
		},
		{
			"bufferView":5,
			"componentType":5126,
			"count":457,
			"max":[
				1.0270819664001465,
				0.4140895903110504,
				0.43591368198394775
			],
			"min":[
				-1.0270819664001465,
				-1.086643099784851,
				-0.4344233572483063
			],
			"type":"VEC3"
		},
		{
			"bufferView":6,
			"componentType":5126,
			"count":457,
			"type":"VEC2"
		},
		{
			"bufferView":7,
			"componentType":5126,
			"count":457,
			"type":"VEC3"
		},
		{
			"bufferView":8,
			"componentType":5123,
			"count":2028,
			"type":"SCALAR"
		},
		{
			"bufferView":9,
			"componentType":5126,
			"count":152,
			"max":[
				0.8265495896339417,
				0.4321177899837494,
				0.4548920691013336
			],
			"min":[
				-0.8265495896339417,
				-0.580076277256012,
				-0.4533368945121765
			],
			"type":"VEC3"
		},
		{
			"bufferView":10,
			"componentType":5126,
			"count":152,
			"type":"VEC2"
		},
		{
			"bufferView":11,
			"componentType":5126,
			"count":152,
			"type":"VEC3"
		},
		{
			"bufferView":12,
			"componentType":5123,
			"count":696,
			"type":"SCALAR"
		}
	],
	"bufferViews":[
		{
			"buffer":0,
			"byteLength":2328,
			"byteOffset":0,
			"target":34962
		},
		{
			"buffer":0,
			"byteLength":1552,
			"byteOffset":2328,
			"target":34962
		},
		{
			"buffer":0,
			"byteLength":2328,
			"byteOffset":3880,
			"target":34962
		},
		{
			"buffer":0,
			"byteLength":1920,
			"byteOffset":6208,
			"target":34963
		},
		{
			"buffer":0,
			"byteLength":417588,
			"byteOffset":8128
		},
		{
			"buffer":0,
			"byteLength":5484,
			"byteOffset":425716,
			"target":34962
		},
		{
			"buffer":0,
			"byteLength":3656,
			"byteOffset":431200,
			"target":34962
		},
		{
			"buffer":0,
			"byteLength":5484,
			"byteOffset":434856,
			"target":34962
		},
		{
			"buffer":0,
			"byteLength":4056,
			"byteOffset":440340,
			"target":34963
		},
		{
			"buffer":0,
			"byteLength":1824,
			"byteOffset":444396,
			"target":34962
		},
		{
			"buffer":0,
			"byteLength":1216,
			"byteOffset":446220,
			"target":34962
		},
		{
			"buffer":0,
			"byteLength":1824,
			"byteOffset":447436,
			"target":34962
		},
		{
			"buffer":0,
			"byteLength":1392,
			"byteOffset":449260,
			"target":34963
		}
	],
	"samplers":[
		{
			"magFilter":9728,
			"minFilter":9984
		}
	],
	"buffers":[
		{
			"byteLength":450652,
			"uri":"data:application/octet-stream;base64,"
		}
	]
}
